<mxfile host="65bd71144e">
    <diagram id="ZusaSa2TXpSFTzVKbZ7l" name="Page-1">
        <mxGraphModel dx="2140" dy="605" grid="0" gridSize="10" guides="1" tooltips="1" connect="1" arrows="1" fold="1" page="1" pageScale="1" pageWidth="1169" pageHeight="827" background="#ffffff" math="0" shadow="0">
            <root>
                <mxCell id="0"/>
                <mxCell id="1" parent="0"/>
                <mxCell id="14" value="" style="rounded=0;whiteSpace=wrap;html=1;labelBackgroundColor=none;strokeColor=none;fontSize=8;fontColor=#000000;fillColor=#10739E;opacity=70;verticalAlign=top;dashed=1;" vertex="1" parent="1">
                    <mxGeometry x="335.25" y="182" width="1273.75" height="904" as="geometry"/>
                </mxCell>
                <mxCell id="132" value="" style="verticalLabelPosition=bottom;verticalAlign=top;html=1;shape=mxgraph.basic.diag_round_rect;dx=17.27;whiteSpace=wrap;rounded=0;dashed=1;labelBackgroundColor=none;strokeColor=#996185;fontSize=8;fillColor=#006666;opacity=40;gradientColor=none;" vertex="1" parent="1">
                    <mxGeometry x="704" y="473" width="726" height="293" as="geometry"/>
                </mxCell>
                <mxCell id="168" value="" style="rounded=0;whiteSpace=wrap;html=1;dashed=1;labelBackgroundColor=none;strokeColor=#FFFFFF;fontSize=8;fontColor=#FFFFFF;fillColor=#00CFCF;gradientColor=none;opacity=30;" vertex="1" parent="1">
                    <mxGeometry x="876" y="479.75" width="190" height="204.25" as="geometry"/>
                </mxCell>
                <mxCell id="200" value="Dataset" style="edgeStyle=none;html=1;entryX=0.014;entryY=0.202;entryDx=0;entryDy=0;entryPerimeter=0;labelBackgroundColor=none;strokeColor=#FFFFFF;strokeWidth=1;fontSize=8;fontColor=#FFFFFF;" edge="1" parent="1" source="142" target="199">
                    <mxGeometry relative="1" as="geometry"/>
                </mxCell>
                <mxCell id="142" value="" style="verticalLabelPosition=bottom;verticalAlign=top;html=1;shape=mxgraph.basic.corner_round_rect;dx=6;whiteSpace=wrap;rounded=0;dashed=1;labelBackgroundColor=none;strokeColor=#996185;fontSize=8;fontColor=default;fillColor=#e6d0de;gradientColor=#d5739d;opacity=80;" vertex="1" parent="1">
                    <mxGeometry x="704" y="216" width="727" height="239" as="geometry"/>
                </mxCell>
                <mxCell id="68" value="" style="html=1;shadow=0;dashed=0;align=center;verticalAlign=middle;shape=mxgraph.arrows2.arrow;dy=0.67;dx=18.6;notch=3.68;rounded=0;labelBackgroundColor=none;strokeColor=default;fontSize=8;fontColor=#003366;fillColor=#CC0066;opacity=80;" vertex="1" parent="1">
                    <mxGeometry x="668" y="396" width="44" height="28" as="geometry"/>
                </mxCell>
                <mxCell id="66" value="" style="verticalLabelPosition=bottom;verticalAlign=top;html=1;shape=mxgraph.basic.diag_round_rect;dx=17.27;whiteSpace=wrap;rounded=0;dashed=1;labelBackgroundColor=none;strokeColor=default;fontSize=8;fontColor=#003366;fillColor=#CC0066;opacity=50;" vertex="1" parent="1">
                    <mxGeometry x="350" y="216" width="332" height="548" as="geometry"/>
                </mxCell>
                <mxCell id="2" value="&lt;font color=&quot;#003366&quot;&gt;Testset Generator&lt;br&gt;(from Langchain Docs)&lt;/font&gt;" style="rounded=0;whiteSpace=wrap;html=1;strokeColor=default;fillColor=#659dbb;opacity=60;" vertex="1" parent="1">
                    <mxGeometry x="335.25" y="122" width="1274.75" height="60" as="geometry"/>
                </mxCell>
                <mxCell id="3" value="" style="endArrow=classic;html=1;entryX=0.186;entryY=0.012;entryDx=0;entryDy=0;entryPerimeter=0;strokeColor=#660033;dashed=1;" edge="1" parent="1">
                    <mxGeometry width="50" height="50" relative="1" as="geometry">
                        <mxPoint x="834.74" y="46.14" as="sourcePoint"/>
                        <mxPoint x="835.3340000000001" y="124.86000000000003" as="targetPoint"/>
                    </mxGeometry>
                </mxCell>
                <mxCell id="5" value="&lt;font style=&quot;font-size: 8px;&quot;&gt;Generator LLM&lt;/font&gt;" style="edgeLabel;html=1;align=center;verticalAlign=middle;resizable=0;points=[];labelBackgroundColor=none;fontColor=#003366;" vertex="1" connectable="0" parent="3">
                    <mxGeometry x="-0.118" y="-3" relative="1" as="geometry">
                        <mxPoint as="offset"/>
                    </mxGeometry>
                </mxCell>
                <mxCell id="4" value="" style="endArrow=classic;html=1;entryX=0.186;entryY=0.012;entryDx=0;entryDy=0;entryPerimeter=0;strokeColor=#660033;dashed=1;" edge="1" parent="1">
                    <mxGeometry width="50" height="50" relative="1" as="geometry">
                        <mxPoint x="876.74" y="45.42" as="sourcePoint"/>
                        <mxPoint x="877.3340000000001" y="124.14000000000003" as="targetPoint"/>
                    </mxGeometry>
                </mxCell>
                <mxCell id="6" value="Critic LLM" style="edgeLabel;html=1;align=center;verticalAlign=middle;resizable=0;points=[];fontSize=8;fontColor=#003366;labelBackgroundColor=none;" vertex="1" connectable="0" parent="4">
                    <mxGeometry x="0.2313" y="1" relative="1" as="geometry">
                        <mxPoint as="offset"/>
                    </mxGeometry>
                </mxCell>
                <mxCell id="7" value="" style="endArrow=classic;html=1;entryX=0.186;entryY=0.012;entryDx=0;entryDy=0;entryPerimeter=0;strokeColor=#660033;dashed=1;" edge="1" parent="1">
                    <mxGeometry width="50" height="50" relative="1" as="geometry">
                        <mxPoint x="920.74" y="45.41999999999997" as="sourcePoint"/>
                        <mxPoint x="921.3340000000001" y="124.14" as="targetPoint"/>
                    </mxGeometry>
                </mxCell>
                <mxCell id="8" value="Embedding Model" style="edgeLabel;html=1;align=center;verticalAlign=middle;resizable=0;points=[];fontSize=8;fontColor=#003366;labelBackgroundColor=none;" vertex="1" connectable="0" parent="7">
                    <mxGeometry x="0.2313" y="1" relative="1" as="geometry">
                        <mxPoint x="1" y="-26" as="offset"/>
                    </mxGeometry>
                </mxCell>
                <mxCell id="9" value="" style="endArrow=classic;html=1;entryX=0.186;entryY=0.012;entryDx=0;entryDy=0;entryPerimeter=0;strokeColor=#660033;dashed=1;" edge="1" parent="1">
                    <mxGeometry width="50" height="50" relative="1" as="geometry">
                        <mxPoint x="975.74" y="43.13999999999997" as="sourcePoint"/>
                        <mxPoint x="976.3340000000001" y="121.86" as="targetPoint"/>
                    </mxGeometry>
                </mxCell>
                <mxCell id="10" value="DocStore (Optional)&lt;br&gt;TokenTextSplitter" style="edgeLabel;html=1;align=center;verticalAlign=middle;resizable=0;points=[];fontSize=8;fontColor=#003366;labelBackgroundColor=none;" vertex="1" connectable="0" parent="9">
                    <mxGeometry x="0.2313" y="1" relative="1" as="geometry">
                        <mxPoint y="-3" as="offset"/>
                    </mxGeometry>
                </mxCell>
                <mxCell id="11" value="" style="endArrow=classic;html=1;entryX=0.186;entryY=0.012;entryDx=0;entryDy=0;entryPerimeter=0;strokeColor=#660033;dashed=1;" edge="1" parent="1">
                    <mxGeometry width="50" height="50" relative="1" as="geometry">
                        <mxPoint x="1026.74" y="45.42" as="sourcePoint"/>
                        <mxPoint x="1027.334" y="124.14000000000003" as="targetPoint"/>
                    </mxGeometry>
                </mxCell>
                <mxCell id="12" value="Chunk Size&lt;br&gt;Default 1024" style="edgeLabel;html=1;align=center;verticalAlign=middle;resizable=0;points=[];fontSize=8;fontColor=#003366;labelBackgroundColor=none;" vertex="1" connectable="0" parent="11">
                    <mxGeometry x="0.2313" y="1" relative="1" as="geometry">
                        <mxPoint x="-3" y="-33" as="offset"/>
                    </mxGeometry>
                </mxCell>
                <mxCell id="33" value="" style="endArrow=classic;html=1;strokeColor=#660033;dashed=1;" edge="1" parent="1">
                    <mxGeometry width="50" height="50" relative="1" as="geometry">
                        <mxPoint x="203.25" y="284" as="sourcePoint"/>
                        <mxPoint x="335.25" y="284" as="targetPoint"/>
                    </mxGeometry>
                </mxCell>
                <mxCell id="34" value="&lt;font style=&quot;font-size: 8px;&quot;&gt;Documents&lt;/font&gt;" style="edgeLabel;html=1;align=center;verticalAlign=middle;resizable=0;points=[];labelBackgroundColor=none;fontColor=#003366;" vertex="1" connectable="0" parent="33">
                    <mxGeometry x="-0.118" y="-3" relative="1" as="geometry">
                        <mxPoint x="2" y="-10" as="offset"/>
                    </mxGeometry>
                </mxCell>
                <mxCell id="35" value="" style="endArrow=classic;html=1;strokeColor=#660033;dashed=1;" edge="1" parent="1">
                    <mxGeometry width="50" height="50" relative="1" as="geometry">
                        <mxPoint x="203.25" y="347" as="sourcePoint"/>
                        <mxPoint x="334.25" y="347" as="targetPoint"/>
                    </mxGeometry>
                </mxCell>
                <mxCell id="36" value="&lt;font style=&quot;font-size: 8px;&quot;&gt;Distributions&lt;/font&gt;" style="edgeLabel;html=1;align=center;verticalAlign=middle;resizable=0;points=[];labelBackgroundColor=none;fontColor=#003366;" vertex="1" connectable="0" parent="35">
                    <mxGeometry x="-0.118" y="-3" relative="1" as="geometry">
                        <mxPoint x="2" y="-10" as="offset"/>
                    </mxGeometry>
                </mxCell>
                <mxCell id="37" value="" style="endArrow=classic;html=1;strokeColor=#660033;dashed=1;" edge="1" parent="1">
                    <mxGeometry width="50" height="50" relative="1" as="geometry">
                        <mxPoint x="220.25" y="416" as="sourcePoint"/>
                        <mxPoint x="335.25" y="416" as="targetPoint"/>
                    </mxGeometry>
                </mxCell>
                <mxCell id="38" value="&lt;font style=&quot;font-size: 8px;&quot;&gt;TestSize&lt;/font&gt;" style="edgeLabel;html=1;align=center;verticalAlign=middle;resizable=0;points=[];labelBackgroundColor=none;fontColor=#003366;" vertex="1" connectable="0" parent="37">
                    <mxGeometry x="-0.118" y="-3" relative="1" as="geometry">
                        <mxPoint x="2" y="-10" as="offset"/>
                    </mxGeometry>
                </mxCell>
                <mxCell id="39" value="Generate with Langchain Docs" style="text;html=1;align=center;verticalAlign=middle;resizable=0;points=[];autosize=1;strokeColor=none;fillColor=none;fontSize=8;fontColor=#000000;" vertex="1" parent="1">
                    <mxGeometry x="691" y="186" width="127" height="22" as="geometry"/>
                </mxCell>
                <mxCell id="58" style="edgeStyle=none;html=1;entryX=0.5;entryY=0;entryDx=0;entryDy=0;labelBackgroundColor=none;strokeColor=#FFFFFF;strokeWidth=1;fontSize=8;fontColor=#003366;" edge="1" parent="1" source="50" target="51">
                    <mxGeometry relative="1" as="geometry"/>
                </mxCell>
                <mxCell id="50" value="Convert Documents&lt;br&gt;to LangChain Documents" style="rounded=0;whiteSpace=wrap;html=1;dashed=1;labelBackgroundColor=none;strokeColor=default;fontSize=8;fontColor=#003366;fillColor=#659dbb;opacity=70;" vertex="1" parent="1">
                    <mxGeometry x="466.5" y="241.5" width="95" height="39" as="geometry"/>
                </mxCell>
                <mxCell id="59" style="edgeStyle=none;html=1;entryX=0.5;entryY=0;entryDx=0;entryDy=0;labelBackgroundColor=none;strokeColor=#FFFFFF;strokeWidth=1;fontSize=8;fontColor=#003366;" edge="1" parent="1" source="51" target="52">
                    <mxGeometry relative="1" as="geometry"/>
                </mxCell>
                <mxCell id="51" value="Split into chunks&lt;br&gt;(Nodes)" style="rounded=0;whiteSpace=wrap;html=1;dashed=1;labelBackgroundColor=none;strokeColor=default;fontSize=8;fontColor=#003366;fillColor=#659dbb;opacity=70;" vertex="1" parent="1">
                    <mxGeometry x="466.5" y="304" width="95" height="39" as="geometry"/>
                </mxCell>
                <mxCell id="55" style="edgeStyle=none;html=1;entryX=0.75;entryY=0;entryDx=0;entryDy=0;labelBackgroundColor=none;strokeColor=#FFFFFF;strokeWidth=1;fontSize=8;fontColor=#003366;exitX=0.25;exitY=1;exitDx=0;exitDy=0;" edge="1" parent="1" source="52" target="53">
                    <mxGeometry relative="1" as="geometry"/>
                </mxCell>
                <mxCell id="61" style="edgeStyle=none;html=1;entryX=0.5;entryY=0;entryDx=0;entryDy=0;labelBackgroundColor=none;strokeColor=#FFFFFF;strokeWidth=1;fontSize=8;fontColor=#003366;exitX=0.94;exitY=1.044;exitDx=0;exitDy=0;exitPerimeter=0;" edge="1" parent="1" source="52" target="60">
                    <mxGeometry relative="1" as="geometry"/>
                </mxCell>
                <mxCell id="52" value="For every Nodes" style="shape=process;whiteSpace=wrap;html=1;backgroundOutline=1;rounded=0;dashed=1;labelBackgroundColor=none;strokeColor=default;fontSize=8;fontColor=#003366;fillColor=#659dbb;opacity=70;" vertex="1" parent="1">
                    <mxGeometry x="454" y="371" width="120" height="60" as="geometry"/>
                </mxCell>
                <mxCell id="56" style="edgeStyle=none;html=1;labelBackgroundColor=none;strokeColor=#FFFFFF;strokeWidth=1;fontSize=8;fontColor=#003366;" edge="1" parent="1" source="53" target="54">
                    <mxGeometry relative="1" as="geometry"/>
                </mxCell>
                <mxCell id="53" value="Create Embeddings" style="rounded=0;whiteSpace=wrap;html=1;dashed=1;labelBackgroundColor=none;strokeColor=default;fontSize=8;fontColor=#003366;fillColor=#659dbb;opacity=70;" vertex="1" parent="1">
                    <mxGeometry x="413" y="467.5" width="95" height="39" as="geometry"/>
                </mxCell>
                <mxCell id="57" style="edgeStyle=none;html=1;entryX=0;entryY=0.5;entryDx=0;entryDy=0;labelBackgroundColor=none;strokeColor=#FFFFFF;strokeWidth=1;fontSize=8;fontColor=#003366;" edge="1" parent="1" source="54" target="52">
                    <mxGeometry relative="1" as="geometry">
                        <Array as="points">
                            <mxPoint x="461" y="604"/>
                            <mxPoint x="389" y="604"/>
                            <mxPoint x="387" y="401"/>
                        </Array>
                    </mxGeometry>
                </mxCell>
                <mxCell id="54" value="Extract Key Phrases" style="rounded=0;whiteSpace=wrap;html=1;dashed=1;labelBackgroundColor=none;strokeColor=default;fontSize=8;fontColor=#003366;fillColor=#659dbb;opacity=70;" vertex="1" parent="1">
                    <mxGeometry x="413" y="534" width="95" height="39" as="geometry"/>
                </mxCell>
                <mxCell id="63" style="edgeStyle=none;html=1;entryX=0.5;entryY=0;entryDx=0;entryDy=0;labelBackgroundColor=none;strokeColor=#FFFFFF;strokeWidth=1;fontSize=8;fontColor=#003366;" edge="1" parent="1" source="60" target="62">
                    <mxGeometry relative="1" as="geometry"/>
                </mxCell>
                <mxCell id="60" value="&lt;span style=&quot;text-align: left; background-color: initial;&quot;&gt;&lt;b&gt;Calculate nodes similarities &lt;/b&gt;&lt;br&gt;(if we use single pdf that all documents comes from same source so similarity is set to 1. We caould have documents from multi pdf)&lt;/span&gt;" style="rounded=0;whiteSpace=wrap;html=1;dashed=1;labelBackgroundColor=none;strokeColor=default;fontSize=8;fontColor=#003366;fillColor=#659dbb;opacity=70;" vertex="1" parent="1">
                    <mxGeometry x="464" y="605" width="204" height="56" as="geometry"/>
                </mxCell>
                <mxCell id="62" value="&lt;span style=&quot;text-align: left; background-color: initial;&quot;&gt;&lt;b&gt;Calculate nodes relationship&lt;/b&gt;&lt;br&gt;&lt;/span&gt;" style="rounded=0;whiteSpace=wrap;html=1;dashed=1;labelBackgroundColor=none;strokeColor=default;fontSize=8;fontColor=#003366;fillColor=#659dbb;opacity=70;" vertex="1" parent="1">
                    <mxGeometry x="464" y="683" width="204" height="37" as="geometry"/>
                </mxCell>
                <mxCell id="148" style="edgeStyle=none;html=1;entryX=0.65;entryY=0.5;entryDx=0;entryDy=0;entryPerimeter=0;labelBackgroundColor=none;strokeColor=#660033;strokeWidth=1;fontSize=8;fontColor=#FFFFFF;" edge="1" parent="1" source="69" target="70">
                    <mxGeometry relative="1" as="geometry"/>
                </mxCell>
                <mxCell id="149" style="edgeStyle=none;html=1;entryX=0;entryY=0.5;entryDx=0;entryDy=0;labelBackgroundColor=none;strokeColor=#660033;strokeWidth=1;fontSize=8;fontColor=#FFFFFF;" edge="1" parent="1" source="69" target="73">
                    <mxGeometry relative="1" as="geometry"/>
                </mxCell>
                <mxCell id="69" value="Check&amp;nbsp;&lt;br&gt;Distributions&lt;br&gt;= 1" style="rhombus;whiteSpace=wrap;html=1;rounded=0;dashed=1;labelBackgroundColor=none;strokeColor=#b85450;fontSize=8;fillColor=#660033;opacity=50;gradientColor=none;" vertex="1" parent="1">
                    <mxGeometry x="773" y="228" width="80" height="80" as="geometry"/>
                </mxCell>
                <mxCell id="70" value="" style="verticalLabelPosition=bottom;verticalAlign=top;html=1;shape=mxgraph.basic.x;rounded=0;dashed=1;labelBackgroundColor=none;strokeColor=default;fontSize=8;fontColor=#003366;fillColor=#660033;gradientColor=none;opacity=50;" vertex="1" parent="1">
                    <mxGeometry x="715" y="251" width="41" height="34" as="geometry"/>
                </mxCell>
                <mxCell id="156" style="edgeStyle=none;html=1;labelBackgroundColor=none;strokeColor=#660033;strokeWidth=1;fontSize=8;fontColor=#FFFFFF;" edge="1" parent="1" source="73" target="112">
                    <mxGeometry relative="1" as="geometry"/>
                </mxCell>
                <mxCell id="73" value="&lt;font color=&quot;#ffffff&quot;&gt;Set Run Config&lt;br&gt;(Default MaxTries 15&lt;br&gt;MaxWait 90)&lt;/font&gt;" style="rounded=0;whiteSpace=wrap;html=1;dashed=1;labelBackgroundColor=none;strokeColor=default;fontSize=8;fontColor=#660033;fillColor=#660033;gradientColor=none;opacity=50;" vertex="1" parent="1">
                    <mxGeometry x="877" y="252.5" width="120" height="31" as="geometry"/>
                </mxCell>
                <mxCell id="95" value="Distributions" style="shape=table;startSize=30;container=1;collapsible=0;childLayout=tableLayout;fontStyle=1;align=center;rounded=0;dashed=1;labelBackgroundColor=none;strokeColor=default;fontSize=8;fontColor=#FFFFFF;fillColor=#660033;gradientColor=none;opacity=50;" vertex="1" parent="1">
                    <mxGeometry x="765.21" y="338" width="118.78695678710938" height="100.94" as="geometry"/>
                </mxCell>
                <mxCell id="96" value="" style="shape=tableRow;horizontal=0;startSize=0;swimlaneHead=0;swimlaneBody=0;top=0;left=0;bottom=0;right=0;collapsible=0;dropTarget=0;fillColor=none;points=[[0,0.5],[1,0.5]];portConstraint=eastwest;rounded=0;dashed=1;labelBackgroundColor=none;strokeColor=default;fontSize=8;fontColor=#FFFFFF;opacity=50;" vertex="1" parent="95">
                    <mxGeometry y="30" width="118.78695678710938" height="17" as="geometry"/>
                </mxCell>
                <mxCell id="97" value="&lt;b&gt;No&lt;/b&gt;" style="shape=partialRectangle;html=1;whiteSpace=wrap;connectable=0;fillColor=none;top=0;left=0;bottom=0;right=0;overflow=hidden;rounded=0;dashed=1;labelBackgroundColor=none;strokeColor=default;fontSize=8;fontColor=#FFFFFF;opacity=50;" vertex="1" parent="96">
                    <mxGeometry width="22" height="17" as="geometry">
                        <mxRectangle width="22" height="17" as="alternateBounds"/>
                    </mxGeometry>
                </mxCell>
                <mxCell id="98" value="&lt;b&gt;Evolution&lt;/b&gt;" style="shape=partialRectangle;html=1;whiteSpace=wrap;connectable=0;fillColor=none;top=0;left=0;bottom=0;right=0;overflow=hidden;rounded=0;dashed=1;labelBackgroundColor=none;strokeColor=default;fontSize=8;fontColor=#FFFFFF;opacity=50;" vertex="1" parent="96">
                    <mxGeometry x="22" width="42" height="17" as="geometry">
                        <mxRectangle width="42" height="17" as="alternateBounds"/>
                    </mxGeometry>
                </mxCell>
                <mxCell id="99" value="&lt;b&gt;Probability&lt;/b&gt;" style="shape=partialRectangle;html=1;whiteSpace=wrap;connectable=0;fillColor=none;top=0;left=0;bottom=0;right=0;overflow=hidden;rounded=0;dashed=1;labelBackgroundColor=none;strokeColor=default;fontSize=8;fontColor=#FFFFFF;opacity=50;" vertex="1" parent="96">
                    <mxGeometry x="64" width="55" height="17" as="geometry">
                        <mxRectangle width="55" height="17" as="alternateBounds"/>
                    </mxGeometry>
                </mxCell>
                <mxCell id="100" value="" style="shape=tableRow;horizontal=0;startSize=0;swimlaneHead=0;swimlaneBody=0;top=0;left=0;bottom=0;right=0;collapsible=0;dropTarget=0;fillColor=none;points=[[0,0.5],[1,0.5]];portConstraint=eastwest;rounded=0;dashed=1;labelBackgroundColor=none;strokeColor=default;fontSize=8;fontColor=#FFFFFF;opacity=50;" vertex="1" parent="95">
                    <mxGeometry y="47" width="118.78695678710938" height="17" as="geometry"/>
                </mxCell>
                <mxCell id="101" value="1" style="shape=partialRectangle;html=1;whiteSpace=wrap;connectable=0;fillColor=none;top=0;left=0;bottom=0;right=0;overflow=hidden;rounded=0;dashed=1;labelBackgroundColor=none;strokeColor=default;fontSize=8;fontColor=#FFFFFF;opacity=50;" vertex="1" parent="100">
                    <mxGeometry width="22" height="17" as="geometry">
                        <mxRectangle width="22" height="17" as="alternateBounds"/>
                    </mxGeometry>
                </mxCell>
                <mxCell id="102" value="Simple" style="shape=partialRectangle;html=1;whiteSpace=wrap;connectable=0;fillColor=none;top=0;left=0;bottom=0;right=0;overflow=hidden;rounded=0;dashed=1;labelBackgroundColor=none;strokeColor=default;fontSize=8;fontColor=#FFFFFF;opacity=50;" vertex="1" parent="100">
                    <mxGeometry x="22" width="42" height="17" as="geometry">
                        <mxRectangle width="42" height="17" as="alternateBounds"/>
                    </mxGeometry>
                </mxCell>
                <mxCell id="103" value="0.5" style="shape=partialRectangle;html=1;whiteSpace=wrap;connectable=0;fillColor=none;top=0;left=0;bottom=0;right=0;overflow=hidden;rounded=0;dashed=1;labelBackgroundColor=none;strokeColor=default;fontSize=8;fontColor=#FFFFFF;opacity=50;" vertex="1" parent="100">
                    <mxGeometry x="64" width="55" height="17" as="geometry">
                        <mxRectangle width="55" height="17" as="alternateBounds"/>
                    </mxGeometry>
                </mxCell>
                <mxCell id="104" value="" style="shape=tableRow;horizontal=0;startSize=0;swimlaneHead=0;swimlaneBody=0;top=0;left=0;bottom=0;right=0;collapsible=0;dropTarget=0;fillColor=none;points=[[0,0.5],[1,0.5]];portConstraint=eastwest;rounded=0;dashed=1;labelBackgroundColor=none;strokeColor=default;fontSize=8;fontColor=#FFFFFF;opacity=50;" vertex="1" parent="95">
                    <mxGeometry y="64" width="118.78695678710938" height="20" as="geometry"/>
                </mxCell>
                <mxCell id="105" value="2" style="shape=partialRectangle;html=1;whiteSpace=wrap;connectable=0;fillColor=none;top=0;left=0;bottom=0;right=0;overflow=hidden;rounded=0;dashed=1;labelBackgroundColor=none;strokeColor=default;fontSize=8;fontColor=#FFFFFF;opacity=50;" vertex="1" parent="104">
                    <mxGeometry width="22" height="20" as="geometry">
                        <mxRectangle width="22" height="20" as="alternateBounds"/>
                    </mxGeometry>
                </mxCell>
                <mxCell id="106" value="MultiContext" style="shape=partialRectangle;html=1;whiteSpace=wrap;connectable=0;fillColor=none;top=0;left=0;bottom=0;right=0;overflow=hidden;rounded=0;dashed=1;labelBackgroundColor=none;strokeColor=default;fontSize=8;fontColor=#FFFFFF;opacity=50;" vertex="1" parent="104">
                    <mxGeometry x="22" width="42" height="20" as="geometry">
                        <mxRectangle width="42" height="20" as="alternateBounds"/>
                    </mxGeometry>
                </mxCell>
                <mxCell id="107" value="0.4" style="shape=partialRectangle;html=1;whiteSpace=wrap;connectable=0;fillColor=none;top=0;left=0;bottom=0;right=0;overflow=hidden;rounded=0;dashed=1;labelBackgroundColor=none;strokeColor=default;fontSize=8;fontColor=#FFFFFF;opacity=50;" vertex="1" parent="104">
                    <mxGeometry x="64" width="55" height="20" as="geometry">
                        <mxRectangle width="55" height="20" as="alternateBounds"/>
                    </mxGeometry>
                </mxCell>
                <mxCell id="108" style="shape=tableRow;horizontal=0;startSize=0;swimlaneHead=0;swimlaneBody=0;top=0;left=0;bottom=0;right=0;collapsible=0;dropTarget=0;fillColor=none;points=[[0,0.5],[1,0.5]];portConstraint=eastwest;rounded=0;dashed=1;labelBackgroundColor=none;strokeColor=default;fontSize=8;fontColor=#FFFFFF;opacity=50;" vertex="1" parent="95">
                    <mxGeometry y="84" width="118.78695678710938" height="17" as="geometry"/>
                </mxCell>
                <mxCell id="109" value="3" style="shape=partialRectangle;html=1;whiteSpace=wrap;connectable=0;fillColor=none;top=0;left=0;bottom=0;right=0;overflow=hidden;rounded=0;dashed=1;labelBackgroundColor=none;strokeColor=default;fontSize=8;fontColor=#FFFFFF;opacity=50;" vertex="1" parent="108">
                    <mxGeometry width="22" height="17" as="geometry">
                        <mxRectangle width="22" height="17" as="alternateBounds"/>
                    </mxGeometry>
                </mxCell>
                <mxCell id="110" value="Reasoning" style="shape=partialRectangle;html=1;whiteSpace=wrap;connectable=0;fillColor=none;top=0;left=0;bottom=0;right=0;overflow=hidden;rounded=0;dashed=1;labelBackgroundColor=none;strokeColor=default;fontSize=8;fontColor=#FFFFFF;opacity=50;" vertex="1" parent="108">
                    <mxGeometry x="22" width="42" height="17" as="geometry">
                        <mxRectangle width="42" height="17" as="alternateBounds"/>
                    </mxGeometry>
                </mxCell>
                <mxCell id="111" value="0.1" style="shape=partialRectangle;html=1;whiteSpace=wrap;connectable=0;fillColor=none;top=0;left=0;bottom=0;right=0;overflow=hidden;rounded=0;dashed=1;labelBackgroundColor=none;strokeColor=default;fontSize=8;fontColor=#FFFFFF;opacity=50;" vertex="1" parent="108">
                    <mxGeometry x="64" width="55" height="17" as="geometry">
                        <mxRectangle width="55" height="17" as="alternateBounds"/>
                    </mxGeometry>
                </mxCell>
                <mxCell id="158" style="edgeStyle=none;html=1;entryX=0.5;entryY=0;entryDx=0;entryDy=0;labelBackgroundColor=none;strokeColor=#660033;strokeWidth=1;fontSize=8;fontColor=#FFFFFF;" edge="1" parent="1" source="112" target="157">
                    <mxGeometry relative="1" as="geometry">
                        <Array as="points">
                            <mxPoint x="1087" y="318"/>
                            <mxPoint x="1118" y="316"/>
                        </Array>
                    </mxGeometry>
                </mxCell>
                <mxCell id="112" value="For Each Evolution and Probability" style="shape=process;whiteSpace=wrap;html=1;backgroundOutline=1;rounded=0;dashed=1;labelBackgroundColor=none;strokeColor=default;fontSize=8;fontColor=#FFFFFF;fillColor=#660033;gradientColor=none;opacity=50;" vertex="1" parent="1">
                    <mxGeometry x="1025" y="241.5" width="120" height="60" as="geometry"/>
                </mxCell>
                <mxCell id="162" style="edgeStyle=none;html=1;entryX=0;entryY=0.5;entryDx=0;entryDy=0;labelBackgroundColor=none;strokeColor=#660033;strokeWidth=1;fontSize=8;fontColor=#FFFFFF;" edge="1" parent="1" source="114" target="128">
                    <mxGeometry relative="1" as="geometry"/>
                </mxCell>
                <mxCell id="114" value="&lt;font color=&quot;#ffffff&quot;&gt;Create Evolution&lt;br&gt;&amp;amp;&lt;br&gt;&lt;/font&gt;&lt;span style=&quot;color: rgb(255, 255, 255);&quot;&gt;Evolve&lt;/span&gt;&lt;font color=&quot;#ffffff&quot;&gt;&lt;br&gt;&lt;/font&gt;" style="rounded=0;whiteSpace=wrap;html=1;dashed=1;labelBackgroundColor=none;strokeColor=default;fontSize=8;fontColor=#660033;fillColor=#660033;gradientColor=none;opacity=50;" vertex="1" parent="1">
                    <mxGeometry x="1134" y="407.94" width="83" height="31" as="geometry"/>
                </mxCell>
                <mxCell id="163" style="edgeStyle=none;html=1;entryX=1;entryY=0.5;entryDx=0;entryDy=0;labelBackgroundColor=none;strokeColor=#660033;strokeWidth=1;fontSize=8;fontColor=#FFFFFF;" edge="1" parent="1" source="128" target="157">
                    <mxGeometry relative="1" as="geometry">
                        <Array as="points">
                            <mxPoint x="1290" y="357"/>
                        </Array>
                    </mxGeometry>
                </mxCell>
                <mxCell id="128" value="&lt;font color=&quot;#ffffff&quot;&gt;Add Filler Evolve&lt;/font&gt;" style="rounded=0;whiteSpace=wrap;html=1;dashed=1;labelBackgroundColor=none;strokeColor=default;fontSize=8;fontColor=#660033;fillColor=#660033;gradientColor=none;opacity=50;" vertex="1" parent="1">
                    <mxGeometry x="1252" y="407.94" width="69" height="31" as="geometry"/>
                </mxCell>
                <mxCell id="133" value="" style="verticalLabelPosition=bottom;verticalAlign=top;html=1;shape=mxgraph.basic.diag_round_rect;dx=17.27;whiteSpace=wrap;rounded=0;dashed=1;labelBackgroundColor=none;strokeColor=#996185;fontSize=8;fillColor=#660066;opacity=60;gradientColor=none;" vertex="1" parent="1">
                    <mxGeometry x="350" y="783" width="1079" height="258" as="geometry"/>
                </mxCell>
                <mxCell id="134" value="SimpleEvolution" style="text;html=1;align=center;verticalAlign=middle;resizable=0;points=[];autosize=1;strokeColor=none;fillColor=none;fontSize=8;fontColor=#FFFFFF;rotation=0;" vertex="1" parent="1">
                    <mxGeometry x="770" y="479.75" width="75" height="22" as="geometry"/>
                </mxCell>
                <mxCell id="187" style="edgeStyle=none;html=1;labelBackgroundColor=none;strokeColor=#FFFFFF;strokeWidth=1;fontSize=8;fontColor=#FFFFFF;" edge="1" parent="1" source="136">
                    <mxGeometry relative="1" as="geometry">
                        <mxPoint x="901.1942596435547" y="545" as="targetPoint"/>
                    </mxGeometry>
                </mxCell>
                <mxCell id="136" value="Merge Nodes&lt;br&gt;&amp;amp; Normalise dimension" style="rounded=0;whiteSpace=wrap;html=1;dashed=1;labelBackgroundColor=none;strokeColor=#FFFFFF;fontSize=8;fontColor=default;fillColor=#006666;gradientColor=none;opacity=90;verticalAlign=middle;align=center;" vertex="1" parent="1">
                    <mxGeometry x="709" y="515" width="120" height="60" as="geometry"/>
                </mxCell>
                <mxCell id="180" style="edgeStyle=none;html=1;entryX=0;entryY=0.5;entryDx=0;entryDy=0;labelBackgroundColor=none;strokeColor=#006666;strokeWidth=1;fontSize=8;fontColor=#FFFFFF;" edge="1" parent="1" source="140" target="183">
                    <mxGeometry relative="1" as="geometry"/>
                </mxCell>
                <mxCell id="181" value="Yes" style="edgeLabel;html=1;align=center;verticalAlign=middle;resizable=0;points=[];fontSize=8;fontColor=#FFFFFF;labelBackgroundColor=none;" vertex="1" connectable="0" parent="180">
                    <mxGeometry x="-0.2867" y="1" relative="1" as="geometry">
                        <mxPoint as="offset"/>
                    </mxGeometry>
                </mxCell>
                <mxCell id="184" style="edgeStyle=none;html=1;labelBackgroundColor=none;strokeColor=#FFFFFF;strokeWidth=1;fontSize=8;fontColor=#FFFFFF;" edge="1" parent="1" source="140" target="176">
                    <mxGeometry relative="1" as="geometry"/>
                </mxCell>
                <mxCell id="140" value="Avg Score&lt;br&gt;&amp;gt;=&amp;nbsp;&lt;br&gt;threshold(1.5)" style="rhombus;whiteSpace=wrap;html=1;rounded=0;labelBackgroundColor=none;strokeColor=#FFFFFF;fontSize=8;fontColor=#FFFFFF;fillColor=#006666;gradientColor=none;opacity=90;dashed=1;" vertex="1" parent="1">
                    <mxGeometry x="975" y="601" width="80" height="80" as="geometry"/>
                </mxCell>
                <mxCell id="144" value="" style="group" vertex="1" connectable="0" parent="1">
                    <mxGeometry x="1206" y="219" width="218" height="130" as="geometry"/>
                </mxCell>
                <mxCell id="118" value="" style="verticalLabelPosition=bottom;verticalAlign=top;html=1;shape=mxgraph.basic.diag_round_rect;dx=17.27;whiteSpace=wrap;rounded=0;dashed=1;labelBackgroundColor=none;strokeColor=#996185;fontSize=8;fillColor=#FF9933;opacity=20;gradientColor=none;" vertex="1" parent="144">
                    <mxGeometry width="218" height="130" as="geometry"/>
                </mxCell>
                <mxCell id="119" value="&lt;font color=&quot;#ffffff&quot;&gt;Node&lt;br&gt;Filter&lt;br&gt;&lt;/font&gt;" style="rounded=0;whiteSpace=wrap;html=1;dashed=1;labelBackgroundColor=none;strokeColor=default;fontSize=8;fontColor=#660033;fillColor=#660033;gradientColor=none;opacity=50;" vertex="1" parent="144">
                    <mxGeometry x="13" y="37.5" width="51" height="31" as="geometry"/>
                </mxCell>
                <mxCell id="120" value="&lt;font color=&quot;#ffffff&quot;&gt;Question&lt;br&gt;Filter&lt;br&gt;&lt;/font&gt;" style="rounded=0;whiteSpace=wrap;html=1;dashed=1;labelBackgroundColor=none;strokeColor=default;fontSize=8;fontColor=#660033;fillColor=#660033;gradientColor=none;opacity=50;" vertex="1" parent="144">
                    <mxGeometry x="78" y="37.5" width="51" height="31" as="geometry"/>
                </mxCell>
                <mxCell id="121" value="&lt;font color=&quot;#ffffff&quot;&gt;Evolution&lt;br&gt;Filter&lt;br&gt;&lt;/font&gt;" style="rounded=0;whiteSpace=wrap;html=1;dashed=1;labelBackgroundColor=none;strokeColor=default;fontSize=8;fontColor=#660033;fillColor=#660033;gradientColor=none;opacity=50;" vertex="1" parent="144">
                    <mxGeometry x="142" y="35.5" width="51" height="31" as="geometry"/>
                </mxCell>
                <mxCell id="122" value="" style="verticalLabelPosition=bottom;shadow=0;dashed=0;align=center;html=1;verticalAlign=top;strokeWidth=1;shape=mxgraph.mockup.markup.curlyBrace;strokeColor=#660033;rounded=0;labelBackgroundColor=none;fontSize=8;fontColor=#FFFFFF;fillColor=none;gradientColor=none;rotation=-180;" vertex="1" parent="144">
                    <mxGeometry x="11.5" y="74.5" width="184.5" height="20" as="geometry"/>
                </mxCell>
                <mxCell id="123" value="Uses Critic LLM&lt;br&gt;to eleminate nodes / questions / evolutions" style="text;html=1;align=center;verticalAlign=middle;resizable=0;points=[];autosize=1;strokeColor=none;fillColor=none;fontSize=8;fontColor=#FFFFFF;" vertex="1" parent="144">
                    <mxGeometry x="32" y="96.5" width="169" height="31" as="geometry"/>
                </mxCell>
                <mxCell id="124" value="Quality Control within Evolution" style="text;html=1;align=center;verticalAlign=middle;resizable=0;points=[];autosize=1;strokeColor=none;fillColor=none;fontSize=8;fontColor=#FFFFFF;" vertex="1" parent="144">
                    <mxGeometry x="32" width="129" height="22" as="geometry"/>
                </mxCell>
                <mxCell id="147" value="Generate" style="text;html=1;align=center;verticalAlign=middle;resizable=0;points=[];autosize=1;strokeColor=none;fillColor=none;fontSize=8;fontColor=#FFFFFF;rotation=-90;" vertex="1" parent="1">
                    <mxGeometry x="690.5" y="341" width="51" height="22" as="geometry"/>
                </mxCell>
                <mxCell id="161" style="edgeStyle=none;html=1;entryX=0;entryY=0.5;entryDx=0;entryDy=0;labelBackgroundColor=none;strokeColor=#660033;strokeWidth=1;fontSize=8;fontColor=#FFFFFF;" edge="1" parent="1" source="157" target="114">
                    <mxGeometry relative="1" as="geometry">
                        <Array as="points">
                            <mxPoint x="1118" y="423"/>
                        </Array>
                    </mxGeometry>
                </mxCell>
                <mxCell id="164" style="edgeStyle=none;html=1;entryX=0.109;entryY=0.995;entryDx=0;entryDy=0;entryPerimeter=0;labelBackgroundColor=none;strokeColor=#660033;strokeWidth=1;fontSize=8;fontColor=#FFFFFF;" edge="1" parent="1" source="157" target="112">
                    <mxGeometry relative="1" as="geometry">
                        <Array as="points">
                            <mxPoint x="1038" y="356"/>
                        </Array>
                    </mxGeometry>
                </mxCell>
                <mxCell id="157" value="For Each Evolution testset within the distribution&lt;br&gt;sample(range(testsize), (probability*testsize))" style="shape=process;whiteSpace=wrap;html=1;backgroundOutline=1;rounded=0;dashed=1;labelBackgroundColor=none;strokeColor=default;fontSize=8;fontColor=#FFFFFF;fillColor=#660033;gradientColor=none;opacity=50;" vertex="1" parent="1">
                    <mxGeometry x="1058" y="329" width="120" height="60" as="geometry"/>
                </mxCell>
                <mxCell id="167" value="MultiContext Evolution" style="text;html=1;align=center;verticalAlign=middle;resizable=0;points=[];autosize=1;strokeColor=none;fillColor=none;fontSize=8;fontColor=#FFFFFF;rotation=-90;" vertex="1" parent="1">
                    <mxGeometry x="311" y="881" width="98" height="22" as="geometry"/>
                </mxCell>
                <mxCell id="170" value="" style="group" vertex="1" connectable="0" parent="1">
                    <mxGeometry x="902" y="504" width="137" height="71" as="geometry"/>
                </mxCell>
                <mxCell id="135" value="&amp;nbsp; &amp;nbsp; &amp;nbsp; &amp;nbsp; &amp;nbsp; &amp;nbsp; Scoring Context&lt;br&gt;&lt;br&gt;|___Clairty&lt;br&gt;|___Depth&lt;br&gt;|___Structure&lt;br&gt;|___Relevance" style="rounded=0;whiteSpace=wrap;html=1;dashed=1;labelBackgroundColor=none;strokeColor=#FFFFFF;fontSize=8;fontColor=default;fillColor=#006666;gradientColor=none;opacity=90;verticalAlign=top;align=left;" vertex="1" parent="170">
                    <mxGeometry width="130" height="71" as="geometry"/>
                </mxCell>
                <mxCell id="138" value="" style="shape=curlyBracket;whiteSpace=wrap;html=1;rounded=1;flipH=1;labelPosition=right;verticalLabelPosition=middle;align=left;verticalAlign=middle;labelBackgroundColor=none;strokeColor=#FFFFFF;fontSize=8;fontColor=#FFFFFF;fillColor=#006666;gradientColor=none;opacity=90;" vertex="1" parent="170">
                    <mxGeometry x="60" y="28.75" width="20" height="36.5" as="geometry"/>
                </mxCell>
                <mxCell id="139" value="Avg Score" style="text;html=1;align=center;verticalAlign=middle;resizable=0;points=[];autosize=1;strokeColor=none;fillColor=none;fontSize=8;fontColor=#FFFFFF;" vertex="1" parent="170">
                    <mxGeometry x="82" y="36" width="55" height="22" as="geometry"/>
                </mxCell>
                <mxCell id="173" value="Node Filter (uses Critic LLM)" style="text;html=1;align=center;verticalAlign=middle;resizable=0;points=[];autosize=1;strokeColor=none;fillColor=none;fontSize=8;fontColor=#FFFFFF;" vertex="1" parent="1">
                    <mxGeometry x="909" y="475" width="120" height="22" as="geometry"/>
                </mxCell>
                <mxCell id="177" style="edgeStyle=none;html=1;dashed=1;labelBackgroundColor=none;strokeColor=#FFFFFF;strokeWidth=1;fontSize=8;fontColor=#FFFFFF;" edge="1" parent="1" source="176">
                    <mxGeometry relative="1" as="geometry">
                        <mxPoint x="711" y="558" as="targetPoint"/>
                        <Array as="points">
                            <mxPoint x="674" y="728"/>
                            <mxPoint x="677" y="558"/>
                        </Array>
                    </mxGeometry>
                </mxCell>
                <mxCell id="182" value="retries" style="edgeLabel;html=1;align=center;verticalAlign=middle;resizable=0;points=[];fontSize=8;fontColor=#FFFFFF;labelBackgroundColor=none;" vertex="1" connectable="0" parent="177">
                    <mxGeometry x="-0.5505" y="1" relative="1" as="geometry">
                        <mxPoint x="2" y="-7" as="offset"/>
                    </mxGeometry>
                </mxCell>
                <mxCell id="176" value="Get New Random Nodes" style="rounded=0;whiteSpace=wrap;html=1;dashed=1;labelBackgroundColor=none;strokeColor=#FFFFFF;fontSize=8;fontColor=default;fillColor=#006666;gradientColor=none;opacity=90;verticalAlign=middle;align=center;" vertex="1" parent="1">
                    <mxGeometry x="981" y="712" width="68" height="31" as="geometry"/>
                </mxCell>
                <mxCell id="178" style="edgeStyle=none;html=1;entryX=0.5;entryY=0;entryDx=0;entryDy=0;labelBackgroundColor=none;strokeColor=#FFFFFF;strokeWidth=1;fontSize=8;fontColor=#FFFFFF;" edge="1" parent="1" target="140">
                    <mxGeometry relative="1" as="geometry">
                        <mxPoint x="1015" y="573" as="sourcePoint"/>
                    </mxGeometry>
                </mxCell>
                <mxCell id="193" style="edgeStyle=none;html=1;entryX=0;entryY=0.5;entryDx=0;entryDy=0;labelBackgroundColor=none;strokeColor=#FFFFFF;strokeWidth=1;fontSize=8;fontColor=#FFFFFF;" edge="1" parent="1" source="183" target="189">
                    <mxGeometry relative="1" as="geometry">
                        <Array as="points">
                            <mxPoint x="1136" y="533"/>
                        </Array>
                    </mxGeometry>
                </mxCell>
                <mxCell id="183" value="Generate simple seed&lt;br&gt;question" style="rounded=0;whiteSpace=wrap;html=1;dashed=1;labelBackgroundColor=none;strokeColor=#FFFFFF;fontSize=8;fontColor=default;fillColor=#006666;gradientColor=none;opacity=90;verticalAlign=middle;align=center;" vertex="1" parent="1">
                    <mxGeometry x="1091" y="611" width="90" height="60" as="geometry"/>
                </mxCell>
                <mxCell id="185" value="" style="rounded=0;whiteSpace=wrap;html=1;dashed=1;labelBackgroundColor=none;strokeColor=#FFFFFF;fontSize=8;fontColor=#FFFFFF;fillColor=#00CFCF;gradientColor=none;opacity=30;" vertex="1" parent="1">
                    <mxGeometry x="1191.5" y="478.5" width="190" height="204.25" as="geometry"/>
                </mxCell>
                <mxCell id="186" value="Question Filter&amp;nbsp;&amp;nbsp;(uses Critic LLM)" style="text;html=1;align=center;verticalAlign=middle;resizable=0;points=[];autosize=1;strokeColor=none;fillColor=none;fontSize=8;fontColor=#FFFFFF;" vertex="1" parent="1">
                    <mxGeometry x="1220" y="478.5" width="135" height="22" as="geometry"/>
                </mxCell>
                <mxCell id="197" style="edgeStyle=none;html=1;entryX=1;entryY=0.5;entryDx=0;entryDy=0;labelBackgroundColor=none;strokeColor=#FFFFFF;strokeWidth=1;fontSize=8;fontColor=#FFFFFF;" edge="1" parent="1" source="194" target="176">
                    <mxGeometry relative="1" as="geometry">
                        <Array as="points">
                            <mxPoint x="1322" y="728"/>
                        </Array>
                    </mxGeometry>
                </mxCell>
                <mxCell id="194" value="Final Score&lt;br&gt;0/1" style="rhombus;whiteSpace=wrap;html=1;rounded=0;labelBackgroundColor=none;strokeColor=#FFFFFF;fontSize=8;fontColor=#FFFFFF;fillColor=#006666;gradientColor=none;opacity=90;dashed=1;" vertex="1" parent="1">
                    <mxGeometry x="1282" y="589" width="80" height="80" as="geometry"/>
                </mxCell>
                <mxCell id="195" value="" style="group" vertex="1" connectable="0" parent="1">
                    <mxGeometry x="1221" y="505" width="131" height="56" as="geometry"/>
                </mxCell>
                <mxCell id="189" value="&amp;nbsp; &amp;nbsp; &amp;nbsp; &amp;nbsp; &amp;nbsp; &amp;nbsp; Scoring simple Question&lt;br&gt;&lt;br&gt;|___Independence&lt;br&gt;|___Clear Intent" style="rounded=0;whiteSpace=wrap;html=1;dashed=1;labelBackgroundColor=none;strokeColor=#FFFFFF;fontSize=8;fontColor=default;fillColor=#006666;gradientColor=none;opacity=90;verticalAlign=top;align=left;" vertex="1" parent="195">
                    <mxGeometry width="130" height="56" as="geometry"/>
                </mxCell>
                <mxCell id="192" value="Final Score&lt;br&gt;0/1" style="text;html=1;align=center;verticalAlign=middle;resizable=0;points=[];autosize=1;strokeColor=none;fillColor=none;fontSize=8;fontColor=#FFFFFF;" vertex="1" parent="195">
                    <mxGeometry x="73" y="23.75" width="58" height="31" as="geometry"/>
                </mxCell>
                <mxCell id="196" style="edgeStyle=none;html=1;labelBackgroundColor=none;strokeColor=#FFFFFF;strokeWidth=1;fontSize=8;fontColor=#FFFFFF;" edge="1" parent="1" source="192" target="194">
                    <mxGeometry relative="1" as="geometry"/>
                </mxCell>
                <mxCell id="199" value="LangSmith Evaluation&lt;br&gt;using Rag Pipeline" style="rounded=0;whiteSpace=wrap;html=1;dashed=1;labelBackgroundColor=none;strokeColor=#FFFFFF;fontSize=8;fontColor=#FFFFFF;fillColor=#00CFCF;gradientColor=none;opacity=30;" vertex="1" parent="1">
                    <mxGeometry x="1475" y="216" width="107" height="769" as="geometry"/>
                </mxCell>
                <mxCell id="225" style="edgeStyle=none;html=1;entryX=0.941;entryY=0.996;entryDx=0;entryDy=0;entryPerimeter=0;labelBackgroundColor=none;strokeColor=#FFFFFF;strokeWidth=1;fontSize=8;fontColor=#FFFFFF;startArrow=classic;startFill=1;" edge="1" parent="1" source="202" target="66">
                    <mxGeometry relative="1" as="geometry">
                        <Array as="points">
                            <mxPoint x="758" y="790"/>
                        </Array>
                    </mxGeometry>
                </mxCell>
                <mxCell id="226" value="GetMoreContext&lt;br&gt;if not valid" style="edgeLabel;html=1;align=center;verticalAlign=middle;resizable=0;points=[];fontSize=8;fontColor=#FFFFFF;labelBackgroundColor=none;" vertex="1" connectable="0" parent="225">
                    <mxGeometry x="0.2815" relative="1" as="geometry">
                        <mxPoint x="48" y="28" as="offset"/>
                    </mxGeometry>
                </mxCell>
                <mxCell id="227" style="edgeStyle=none;html=1;labelBackgroundColor=none;strokeColor=#FFFFFF;strokeWidth=1;fontSize=8;fontColor=#FFFFFF;startArrow=none;startFill=0;" edge="1" parent="1" source="202" target="224">
                    <mxGeometry relative="1" as="geometry"/>
                </mxCell>
                <mxCell id="202" value="" style="rounded=0;whiteSpace=wrap;html=1;dashed=1;labelBackgroundColor=none;strokeColor=#FFFFFF;fontSize=8;fontColor=#FFFFFF;fillColor=#00CFCF;gradientColor=none;opacity=30;" vertex="1" parent="1">
                    <mxGeometry x="759" y="860" width="106" height="54" as="geometry"/>
                </mxCell>
                <mxCell id="203" value="Question Filter" style="text;html=1;align=center;verticalAlign=middle;resizable=0;points=[];autosize=1;strokeColor=none;fillColor=none;fontSize=8;fontColor=#FFFFFF;" vertex="1" parent="1">
                    <mxGeometry x="773" y="875" width="70" height="22" as="geometry"/>
                </mxCell>
                <mxCell id="209" value="" style="rounded=0;whiteSpace=wrap;html=1;dashed=1;labelBackgroundColor=none;strokeColor=#996185;fontSize=8;fontColor=default;fillColor=#9999FF;gradientColor=none;opacity=60;verticalAlign=top;" vertex="1" parent="1">
                    <mxGeometry x="402" y="791" width="228" height="206" as="geometry"/>
                </mxCell>
                <mxCell id="210" value="Complex Evolution" style="text;html=1;align=center;verticalAlign=middle;resizable=0;points=[];autosize=1;strokeColor=none;fillColor=none;fontSize=8;fontColor=#FFFFFF;rotation=-90;" vertex="1" parent="1">
                    <mxGeometry x="369" y="881" width="85" height="22" as="geometry"/>
                </mxCell>
                <mxCell id="214" style="edgeStyle=none;html=1;entryX=0.5;entryY=1;entryDx=0;entryDy=0;labelBackgroundColor=none;strokeColor=#FFFFFF;strokeWidth=1;fontSize=8;fontColor=#FFFFFF;" edge="1" parent="1" source="201" target="205">
                    <mxGeometry relative="1" as="geometry"/>
                </mxCell>
                <mxCell id="201" value="Simple Evolution" style="rounded=0;whiteSpace=wrap;html=1;dashed=1;labelBackgroundColor=none;strokeColor=#996185;fontSize=8;fontColor=default;fillColor=#660066;gradientColor=none;opacity=60;verticalAlign=middle;align=center;" vertex="1" parent="1">
                    <mxGeometry x="418" y="954" width="75.5" height="26" as="geometry"/>
                </mxCell>
                <mxCell id="215" style="edgeStyle=none;html=1;entryX=0.5;entryY=1;entryDx=0;entryDy=0;labelBackgroundColor=none;strokeColor=#FFFFFF;strokeWidth=1;fontSize=8;fontColor=#FFFFFF;" edge="1" parent="1" source="205" target="207">
                    <mxGeometry relative="1" as="geometry"/>
                </mxCell>
                <mxCell id="233" style="edgeStyle=none;html=1;entryX=0;entryY=0.5;entryDx=0;entryDy=0;labelBackgroundColor=none;strokeColor=#FFFFFF;strokeWidth=1;fontSize=8;fontColor=#FFFFFF;startArrow=none;startFill=0;" edge="1" parent="1" source="205" target="230">
                    <mxGeometry relative="1" as="geometry">
                        <Array as="points">
                            <mxPoint x="880" y="927"/>
                        </Array>
                    </mxGeometry>
                </mxCell>
                <mxCell id="234" value="Simple Question" style="edgeLabel;html=1;align=center;verticalAlign=middle;resizable=0;points=[];fontSize=8;fontColor=#FFFFFF;labelBackgroundColor=none;" vertex="1" connectable="0" parent="233">
                    <mxGeometry x="0.3585" y="-1" relative="1" as="geometry">
                        <mxPoint as="offset"/>
                    </mxGeometry>
                </mxCell>
                <mxCell id="205" value="Simple Question" style="rounded=0;whiteSpace=wrap;html=1;dashed=1;labelBackgroundColor=none;strokeColor=#996185;fontSize=8;fontColor=default;fillColor=#660066;gradientColor=none;opacity=60;verticalAlign=middle;align=center;" vertex="1" parent="1">
                    <mxGeometry x="418" y="908" width="75.5" height="30" as="geometry"/>
                </mxCell>
                <mxCell id="216" style="edgeStyle=none;html=1;entryX=0.5;entryY=1;entryDx=0;entryDy=0;labelBackgroundColor=none;strokeColor=#FFFFFF;strokeWidth=1;fontSize=8;fontColor=#FFFFFF;" edge="1" parent="1" source="207" target="213">
                    <mxGeometry relative="1" as="geometry"/>
                </mxCell>
                <mxCell id="207" value="Merged Nodes" style="rounded=0;whiteSpace=wrap;html=1;dashed=1;labelBackgroundColor=none;strokeColor=#996185;fontSize=8;fontColor=default;fillColor=#660066;gradientColor=none;opacity=60;verticalAlign=middle;align=center;" vertex="1" parent="1">
                    <mxGeometry x="418" y="862" width="75.5" height="27" as="geometry"/>
                </mxCell>
                <mxCell id="212" style="edgeStyle=none;html=1;entryX=0.5;entryY=1;entryDx=0;entryDy=0;labelBackgroundColor=none;strokeColor=#FFFFFF;strokeWidth=1;fontSize=8;fontColor=#FFFFFF;" edge="1" parent="1" source="211" target="183">
                    <mxGeometry relative="1" as="geometry"/>
                </mxCell>
                <mxCell id="211" value="Simple Question&amp;nbsp;&lt;br&gt;Prompt" style="rounded=0;whiteSpace=wrap;html=1;dashed=1;labelBackgroundColor=none;strokeColor=#FFFFFF;fontSize=8;fontColor=default;fillColor=#006666;gradientColor=none;opacity=90;verticalAlign=middle;align=center;" vertex="1" parent="1">
                    <mxGeometry x="1091" y="697" width="90" height="27" as="geometry"/>
                </mxCell>
                <mxCell id="217" style="edgeStyle=none;html=1;labelBackgroundColor=none;strokeColor=#FFFFFF;strokeWidth=1;fontSize=8;fontColor=#FFFFFF;entryX=0.5;entryY=0;entryDx=0;entryDy=0;" edge="1" parent="1" source="213" target="218">
                    <mxGeometry relative="1" as="geometry">
                        <Array as="points">
                            <mxPoint x="456" y="747"/>
                            <mxPoint x="570" y="747"/>
                        </Array>
                    </mxGeometry>
                </mxCell>
                <mxCell id="213" value="Get Similar Nodes" style="rounded=0;whiteSpace=wrap;html=1;dashed=1;labelBackgroundColor=none;strokeColor=#996185;fontSize=8;fontColor=default;fillColor=#660066;gradientColor=none;opacity=60;verticalAlign=middle;align=center;" vertex="1" parent="1">
                    <mxGeometry x="418" y="818" width="75.5" height="27" as="geometry"/>
                </mxCell>
                <mxCell id="220" style="edgeStyle=none;html=1;entryX=0;entryY=0.5;entryDx=0;entryDy=0;labelBackgroundColor=none;strokeColor=#FFFFFF;strokeWidth=1;fontSize=8;fontColor=#FFFFFF;" edge="1" parent="1" source="218" target="219">
                    <mxGeometry relative="1" as="geometry">
                        <Array as="points">
                            <mxPoint x="570" y="884"/>
                        </Array>
                    </mxGeometry>
                </mxCell>
                <mxCell id="218" value="Merge nodes&lt;br&gt;(multi context)" style="rounded=0;whiteSpace=wrap;html=1;dashed=1;labelBackgroundColor=none;strokeColor=#996185;fontSize=8;fontColor=default;fillColor=#660066;gradientColor=none;opacity=60;verticalAlign=middle;align=center;" vertex="1" parent="1">
                    <mxGeometry x="532" y="818" width="75.5" height="27" as="geometry"/>
                </mxCell>
                <mxCell id="223" style="edgeStyle=none;html=1;entryX=-0.003;entryY=0.436;entryDx=0;entryDy=0;entryPerimeter=0;labelBackgroundColor=none;strokeColor=#FFFFFF;strokeWidth=1;fontSize=8;fontColor=#FFFFFF;" edge="1" parent="1" source="219" target="202">
                    <mxGeometry relative="1" as="geometry"/>
                </mxCell>
                <mxCell id="219" value="Generate MultiContext&lt;br&gt;Question" style="rounded=0;whiteSpace=wrap;html=1;dashed=1;labelBackgroundColor=none;strokeColor=#996185;fontSize=8;fontColor=default;fillColor=#660066;gradientColor=none;opacity=60;verticalAlign=middle;align=center;" vertex="1" parent="1">
                    <mxGeometry x="652.25" y="870" width="75.5" height="27" as="geometry"/>
                </mxCell>
                <mxCell id="222" style="edgeStyle=none;html=1;labelBackgroundColor=none;strokeColor=#FFFFFF;strokeWidth=1;fontSize=8;fontColor=#FFFFFF;" edge="1" parent="1" source="221" target="219">
                    <mxGeometry relative="1" as="geometry"/>
                </mxCell>
                <mxCell id="221" value="MultiContext Question&lt;br&gt;Prompt" style="rounded=0;whiteSpace=wrap;html=1;dashed=1;labelBackgroundColor=none;strokeColor=#996185;fontSize=8;fontColor=default;fillColor=#660066;gradientColor=none;opacity=60;verticalAlign=middle;align=center;" vertex="1" parent="1">
                    <mxGeometry x="652.25" y="814" width="75.5" height="27" as="geometry"/>
                </mxCell>
                <mxCell id="231" style="edgeStyle=none;html=1;entryX=0.5;entryY=0;entryDx=0;entryDy=0;labelBackgroundColor=none;strokeColor=#FFFFFF;strokeWidth=1;fontSize=8;fontColor=#FFFFFF;startArrow=none;startFill=0;" edge="1" parent="1" source="224" target="230">
                    <mxGeometry relative="1" as="geometry"/>
                </mxCell>
                <mxCell id="232" value="Compressed Question" style="edgeLabel;html=1;align=center;verticalAlign=middle;resizable=0;points=[];fontSize=8;fontColor=#FFFFFF;labelBackgroundColor=none;" vertex="1" connectable="0" parent="231">
                    <mxGeometry x="-0.1759" relative="1" as="geometry">
                        <mxPoint as="offset"/>
                    </mxGeometry>
                </mxCell>
                <mxCell id="224" value="Compress&amp;nbsp;&lt;br&gt;Question" style="rounded=0;whiteSpace=wrap;html=1;dashed=1;labelBackgroundColor=none;strokeColor=#FFFFFF;fontSize=8;fontColor=#FFFFFF;fillColor=#00CFCF;gradientColor=none;opacity=30;" vertex="1" parent="1">
                    <mxGeometry x="919.63" y="860" width="106" height="54" as="geometry"/>
                </mxCell>
                <mxCell id="229" style="edgeStyle=none;html=1;entryX=0.5;entryY=0;entryDx=0;entryDy=0;labelBackgroundColor=none;strokeColor=#FFFFFF;strokeWidth=1;fontSize=8;fontColor=#FFFFFF;startArrow=none;startFill=0;" edge="1" parent="1" source="228" target="224">
                    <mxGeometry relative="1" as="geometry"/>
                </mxCell>
                <mxCell id="228" value="Compress&amp;nbsp;&lt;br&gt;Question Prompt" style="rounded=0;whiteSpace=wrap;html=1;dashed=1;labelBackgroundColor=none;strokeColor=#996185;fontSize=8;fontColor=default;fillColor=#660066;gradientColor=none;opacity=60;verticalAlign=middle;align=center;" vertex="1" parent="1">
                    <mxGeometry x="934.38" y="791" width="75.5" height="27" as="geometry"/>
                </mxCell>
                <mxCell id="237" style="edgeStyle=none;html=1;entryX=0.5;entryY=1;entryDx=0;entryDy=0;labelBackgroundColor=none;strokeColor=#FFFFFF;strokeWidth=1;fontSize=8;fontColor=#FFFFFF;startArrow=none;startFill=0;" edge="1" parent="1" source="230" target="209">
                    <mxGeometry relative="1" as="geometry">
                        <Array as="points">
                            <mxPoint x="974" y="1022"/>
                            <mxPoint x="516" y="1020"/>
                        </Array>
                    </mxGeometry>
                </mxCell>
                <mxCell id="238" value="If evaluation fails get more context" style="edgeLabel;html=1;align=center;verticalAlign=middle;resizable=0;points=[];fontSize=8;fontColor=#FFFFFF;labelBackgroundColor=none;" vertex="1" connectable="0" parent="237">
                    <mxGeometry x="0.3304" y="-1" relative="1" as="geometry">
                        <mxPoint as="offset"/>
                    </mxGeometry>
                </mxCell>
                <mxCell id="230" value="Evolution&lt;br&gt;Filter&lt;span style=&quot;&quot;&gt;&amp;nbsp;(uses Critic LLM)&lt;/span&gt;" style="rounded=0;whiteSpace=wrap;html=1;dashed=1;labelBackgroundColor=none;strokeColor=#FFFFFF;fontSize=8;fontColor=#FFFFFF;fillColor=#00CFCF;gradientColor=none;opacity=30;" vertex="1" parent="1">
                    <mxGeometry x="919" y="946" width="106" height="54" as="geometry"/>
                </mxCell>
                <mxCell id="236" style="edgeStyle=none;html=1;entryX=0;entryY=0.75;entryDx=0;entryDy=0;labelBackgroundColor=none;strokeColor=#FFFFFF;strokeWidth=1;fontSize=8;fontColor=#FFFFFF;startArrow=none;startFill=0;" edge="1" parent="1" source="235" target="230">
                    <mxGeometry relative="1" as="geometry"/>
                </mxCell>
                <mxCell id="235" value="Evolution&lt;br&gt;Elimination Prompt" style="rounded=0;whiteSpace=wrap;html=1;dashed=1;labelBackgroundColor=none;strokeColor=#996185;fontSize=8;fontColor=default;fillColor=#660066;gradientColor=none;opacity=60;verticalAlign=middle;align=center;" vertex="1" parent="1">
                    <mxGeometry x="780" y="973" width="75.5" height="27" as="geometry"/>
                </mxCell>
            </root>
        </mxGraphModel>
    </diagram>
</mxfile>